<svg width="101" height="42" viewBox="0 0 101 42" fill="none" xmlns="http://www.w3.org/2000/svg">
<path fill-rule="evenodd" clip-rule="evenodd" d="M96.6843 6.93875H100.864L100.543 8.43376H96.3641L94.041 19.0829C93.936 19.562 93.8759 20.0498 93.8619 20.54C93.8619 21.8888 94.7195 22.5496 96.0764 22.5496C97.1347 22.5193 98.1668 22.2211 99.0781 21.6829L98.7853 23.2429C97.787 23.7906 96.6669 24.0776 95.5282 24.0771C93.3138 24.0771 91.7777 22.9342 91.7777 20.8867C91.7951 20.3144 91.866 19.745 91.9894 19.1858L94.3504 8.43376H91.8482L92.1685 6.93875H94.6706L95.6694 2.46458L97.8401 1.63584L96.6843 6.93875ZM85.3892 6.93875H89.6446L86.6431 20.7459C86.5514 21.1101 86.4915 21.4817 86.464 21.8563C86.464 22.3059 86.7517 22.5875 87.3216 22.5875C87.8515 22.5656 88.3672 22.409 88.8196 22.1325L88.4993 23.5571C87.9172 23.9063 87.2518 24.0933 86.5725 24.0987C85.1776 24.0987 84.4285 23.335 84.4285 22.1541C84.4483 21.7217 84.5083 21.2919 84.6077 20.8705L87.3216 8.45543H85.0691L85.3892 6.93875ZM90.969 1.94459C90.9221 2.39145 90.7151 2.80638 90.3859 3.11295C90.0568 3.41951 89.6277 3.59707 89.1778 3.61292C88.8899 3.61292 88.6138 3.49879 88.4102 3.29562C88.2066 3.09246 88.0923 2.81691 88.0923 2.52958C88.1257 2.09484 88.3197 1.68797 88.6366 1.38775C88.9534 1.08755 89.3706 0.915377 89.8075 0.904584C90.0986 0.892631 90.383 0.994657 90.6001 1.18892C90.8171 1.38319 90.9494 1.65434 90.969 1.94459ZM77.5408 11.2775C77.5408 10.3405 76.9329 9.65251 75.7551 9.65251C73.3615 9.65251 71.3586 12.0467 70.5716 14.6142C71.2082 14.7411 71.8549 14.81 72.5039 14.82C75.7931 14.8146 77.5408 13.2871 77.5408 11.2775ZM81.883 11.2775C81.883 14.7821 78.3441 17.5554 73.1606 17.5554C72.105 17.5594 71.0519 17.454 70.018 17.2413C70.018 17.3821 69.9799 17.5229 69.9799 17.6258C69.9799 19.7925 71.4455 20.9896 73.5894 20.9896C75.6925 20.8817 77.7393 20.2745 79.56 19.2184L78.8814 22.4683C76.8888 23.5258 74.6684 24.0835 72.4116 24.0933C68.3028 24.0933 65.2253 22.0459 65.2253 17.8479C65.2253 12.1225 69.9094 6.64625 76.1622 6.64625C79.4731 6.63001 81.9047 8.19001 81.9047 11.2775H81.883ZM65.0571 11.4833C65.0458 11.7981 65.0094 12.1114 64.9485 12.4205L60.3784 12.5233C60.4215 12.2837 60.4451 12.041 60.4489 11.7975C60.4489 10.6546 60.0201 9.63084 58.6632 9.63084C57.1978 9.63084 55.9493 10.7142 55.0863 12.0575C54.0364 13.7734 53.4579 15.7351 53.4091 17.745C53.4091 19.9117 54.6576 20.995 56.948 20.995C59.0318 20.8879 61.0567 20.2682 62.8425 19.1912L62.126 22.4142C60.2684 23.4899 58.1622 24.0648 56.0145 24.0825C51.8352 24.0825 48.6165 22.1759 48.6165 17.8046C48.6165 12.0088 52.9098 6.63542 59.054 6.63542C62.6689 6.63001 65.0625 8.50417 65.0625 11.4833H65.0571ZM40.7844 16.7916L42.3366 9.82045C42.0052 9.63516 41.6309 9.5399 41.2511 9.54417C37.1043 9.54417 34.4611 14.4192 34.4611 17.9346C34.4611 19.9117 35.2861 20.9517 36.8926 20.9517C37.3806 20.9713 37.8669 20.8846 38.3178 20.6975C38.7686 20.5104 39.1733 20.2274 39.5034 19.8684C40.1753 18.9618 40.6168 17.906 40.7898 16.7916H40.7844ZM45.1265 7.58334L47.6992 6.92251L44.9853 19.24C44.9134 19.5481 44.8663 19.8615 44.8443 20.1771C44.8443 20.6267 45.094 20.8705 45.6313 20.8705C46.2022 20.8236 46.7571 20.6576 47.2596 20.3829L46.7168 23.0208C45.6966 23.6125 44.537 23.9229 43.357 23.9201C41.9242 23.9201 40.7083 23.2971 40.3881 22.0838C39.7429 22.7389 38.9682 23.253 38.1132 23.5934C37.2582 23.9338 36.3417 24.0929 35.4218 24.0609C31.8449 24.0609 29.6684 21.7696 29.6684 18.0592C29.6783 16.5438 29.9881 15.0451 30.5801 13.6496C31.172 12.2539 32.0344 10.9887 33.1178 9.92675C34.2011 8.86472 35.4841 8.02677 36.8928 7.46101C38.3017 6.89526 39.8086 6.61285 41.3271 6.63001C42.6669 6.62527 43.9852 6.96677 45.1536 7.62126L45.1265 7.58334ZM22.8729 0H29.9289L25.7388 19.3917C25.6672 19.6998 25.6201 20.0133 25.5976 20.3288C25.5976 20.7784 25.8798 21.0221 26.4172 21.0221C26.9697 20.9722 27.5057 20.808 27.9912 20.54L27.4159 23.1725C26.3977 23.7698 25.2371 24.0823 24.0561 24.0771C22.1673 24.0771 20.7994 23.2429 20.7994 21.2333C20.8115 20.6012 20.8953 19.9725 21.0492 19.3592L24.5229 3.28792H22.1999L22.8729 0ZM15.7409 7.91375C15.7712 7.55215 15.7229 7.18828 15.5992 6.84704C15.4756 6.50581 15.2795 6.19527 15.0244 5.93668C14.3785 5.395 13.3473 5.17292 11.7678 5.17292H9.00506L7.18136 13.4604H9.2276C11.5126 13.4604 12.9781 12.9784 13.9769 12.1063C14.5488 11.5697 15.0014 10.9194 15.3053 10.1971C15.6092 9.47484 15.7576 8.69692 15.7409 7.91375ZM20.8701 7.62126C20.8865 8.88894 20.6152 10.1439 20.0767 11.2921C19.5381 12.4403 18.746 13.4519 17.76 14.2512C15.8657 15.7733 13.2604 16.5046 9.93324 16.5046H6.54088L4.96684 23.7629H0.000488281L4.0387 5.17292H1.53653L2.25298 1.80916H12.2943C15.4369 1.80916 17.5863 2.25875 19.0464 3.40167C20.2621 4.33876 20.8701 5.69292 20.8701 7.62126Z" fill="white"/>
<path fill-rule="evenodd" clip-rule="evenodd" d="M20.5431 38.2745C20.0952 38.2928 19.6535 38.1644 19.285 37.9088C18.9606 37.6598 18.7464 37.2949 18.6864 36.8909L19.4437 33.5605C19.6553 33.0546 20.0229 32.6289 20.4937 32.345C20.9795 32.0233 21.549 31.8515 22.1326 31.8508C22.4579 31.8371 22.7788 31.9327 23.0433 32.1226C23.3016 32.33 23.477 32.6226 23.5387 32.9478C23.6375 33.3703 23.6595 33.8072 23.6031 34.2375L23.4744 34.9441L23.4444 35.0775C23.2689 35.9559 22.8758 36.7764 22.301 37.4641C22.085 37.7193 21.8152 37.9241 21.5119 38.0641C21.2078 38.2041 20.8772 38.2759 20.5431 38.2745ZM24.3604 35.0132C24.4177 34.7241 24.4591 34.4322 24.4838 34.1387C24.534 33.5952 24.482 33.0473 24.3304 32.5228C24.1999 32.0536 23.916 31.6414 23.5237 31.3518C23.1182 31.078 22.6368 30.938 22.1467 30.9515C21.5701 30.9502 21.0015 31.0929 20.4937 31.3666C20.2327 31.5038 19.9885 31.6695 19.7655 31.8607L20.5774 28.2684C20.5871 28.2335 20.5871 28.1969 20.5801 28.1617C20.5722 28.1265 20.5563 28.0936 20.5334 28.0658C20.5113 28.0365 20.4831 28.0127 20.4505 27.9964C20.417 27.9801 20.3817 27.9718 20.3447 27.9719H19.9683C19.9083 27.9726 19.8501 27.9935 19.8034 28.0312C19.7567 28.0688 19.7241 28.121 19.7108 28.1795L17.394 38.7093C17.3861 38.7443 17.3861 38.7805 17.394 38.8155C17.4011 38.8505 17.4169 38.8834 17.4381 38.9119C17.4601 38.9406 17.4892 38.9636 17.5218 38.9791C17.5545 38.9946 17.5906 39.0021 17.6268 39.0008H18.0076C18.0667 39.0011 18.124 38.9811 18.1698 38.9441C18.2157 38.9073 18.2474 38.8558 18.2606 38.7982L18.3893 38.2498C18.5612 38.4625 18.7737 38.6403 19.0126 38.7736C19.4675 39.0228 19.9797 39.1489 20.4981 39.1392C20.931 39.1401 21.3585 39.0529 21.7561 38.8831C22.1537 38.7131 22.5125 38.464 22.8105 38.151C23.5123 37.3982 24.0042 36.4746 24.2369 35.4728L24.3604 35.0132Z" fill="white"/>
<path fill-rule="evenodd" clip-rule="evenodd" d="M31.9501 31.218C31.9281 31.1806 31.8972 31.1496 31.8602 31.1279C31.8223 31.1062 31.78 31.0946 31.7368 31.0945H31.311C31.266 31.095 31.221 31.1072 31.1814 31.1296C31.1408 31.152 31.1073 31.1841 31.0835 31.2229L27.3306 37.4687L26.2409 31.2772C26.2303 31.2223 26.2012 31.1728 26.1572 31.1376C26.114 31.1023 26.0593 31.0835 26.0038 31.0845H25.6026C25.5647 31.085 25.5268 31.0937 25.4933 31.1099C25.4589 31.126 25.429 31.1495 25.4043 31.1784C25.3796 31.2063 25.3611 31.2394 25.3505 31.2754C25.3408 31.3113 25.3382 31.3492 25.3452 31.3859L26.6473 38.6398L25.9685 39.7861L25.6767 40.2259C25.5303 40.4843 25.3223 40.7023 25.071 40.8601C24.8198 41.018 24.5324 41.1109 24.2362 41.1302C24.0907 41.1222 23.947 41.1023 23.8051 41.0708C23.7716 41.0659 23.7363 41.0677 23.7037 41.0761C23.6702 41.0847 23.6393 41.0997 23.612 41.1203C23.5556 41.1604 23.5168 41.2205 23.5027 41.2883L23.4489 41.6441C23.4374 41.7029 23.4498 41.7634 23.4815 41.8139C23.5141 41.8642 23.5644 41.9006 23.6217 41.9159C23.8253 41.9722 24.0352 42.0005 24.2459 41.9999C24.7307 41.992 25.2006 41.835 25.5921 41.5502C26.0849 41.1646 26.4886 40.6776 26.776 40.1222L31.9404 31.4848C31.9616 31.4463 31.973 31.4029 31.973 31.3588C31.973 31.3146 31.9616 31.2712 31.9404 31.2328" fill="white"/>
<path d="M51.5795 29.5084C48.8219 29.5084 46.8163 31.5542 46.8163 34.3707C46.841 35.3249 47.1434 36.2516 47.6847 37.0384C48.226 37.8253 48.985 38.4387 49.8684 38.8046C50.7517 39.1704 51.7224 39.273 52.663 39.1C53.6037 38.927 54.4747 38.4857 55.1694 37.8296C55.3528 37.6485 55.4603 37.4049 55.4709 37.1477C55.4735 37.0415 55.4533 36.9362 55.4136 36.838C55.373 36.7398 55.3131 36.6509 55.2373 36.5768C55.1606 36.5026 55.0698 36.445 54.971 36.4072C54.8714 36.3693 54.7656 36.3523 54.6589 36.3571C54.5338 36.36 54.4103 36.3877 54.2948 36.4385C54.1802 36.4895 54.0771 36.5625 53.9907 36.6536C53.6918 36.9665 53.3321 37.2155 52.9337 37.3854C52.5352 37.5553 52.1067 37.6425 51.6739 37.6418C50.936 37.6548 50.221 37.3839 49.6779 36.8852C49.1349 36.3865 48.8052 35.6984 48.7576 34.9636H54.986C55.664 34.9636 55.976 34.6474 55.976 33.9754C55.9804 33.7737 55.9672 33.572 55.9364 33.3725C55.6199 30.9266 53.981 29.5084 51.5795 29.5084ZM51.5795 31.0155C53.065 31.0155 54.0551 31.9692 54.0947 33.4862H48.7576C48.829 32.7931 49.1587 32.1521 49.6815 31.69C50.2042 31.228 50.8813 30.9785 51.5795 30.9908V31.0155Z" fill="white"/>
<path d="M61.942 29.5085C61.3381 29.5043 60.7448 29.661 60.222 29.9625C59.7001 30.2639 59.2681 30.6992 58.971 31.2231V30.5808C58.9842 30.4547 58.9701 30.3273 58.9314 30.2068C58.8917 30.0864 58.8282 29.9754 58.7427 29.8812C58.6581 29.7871 58.554 29.7118 58.4385 29.6603C58.3222 29.6087 58.197 29.5821 58.07 29.5821C57.9422 29.5821 57.817 29.6087 57.7015 29.6603C57.5852 29.7118 57.4811 29.7871 57.3965 29.8812C57.311 29.9754 57.2475 30.0864 57.2078 30.2068C57.169 30.3273 57.1549 30.4547 57.1682 30.5808V38.0371C57.1549 38.1699 57.169 38.304 57.2105 38.4308C57.2528 38.5576 57.3207 38.6743 57.4097 38.7733C57.4996 38.8723 57.609 38.9514 57.7315 39.0056C57.8532 39.0598 57.9854 39.0878 58.1194 39.0878C58.2525 39.0878 58.3848 39.0598 58.5073 39.0056C58.629 38.9514 58.7392 38.8723 58.8282 38.7733C58.9181 38.6743 58.986 38.5576 59.0274 38.4308C59.0689 38.304 59.083 38.1699 59.0698 38.0371V34.0396C59.0698 32.3003 60.0598 31.0749 61.4659 31.0749C62.8721 31.0749 63.5015 31.9693 63.5015 33.8124V38.0223C63.4874 38.1551 63.5024 38.2892 63.5438 38.4159C63.5853 38.5427 63.6532 38.6594 63.7431 38.7584C63.8321 38.8575 63.9414 38.9366 64.064 38.9908C64.1856 39.045 64.3179 39.073 64.4519 39.073C64.5859 39.073 64.7181 39.045 64.8398 38.9908C64.9623 38.9366 65.0717 38.8575 65.1616 38.7584C65.2506 38.6594 65.3185 38.5427 65.3599 38.4159C65.4014 38.2892 65.4164 38.1551 65.4022 38.0223V33.2342C65.3925 31.4208 64.4863 29.5085 61.942 29.5085Z" fill="white"/>
<path d="M73.9769 29.5777C73.7574 29.5814 73.5458 29.6577 73.3748 29.7945C73.2037 29.9313 73.083 30.1209 73.0309 30.3337L70.432 36.8512L67.8569 30.3337C67.8049 30.1177 67.6814 29.9256 67.506 29.7884C67.3306 29.6512 67.1146 29.577 66.8915 29.5777C66.769 29.5757 66.6464 29.5979 66.5327 29.643C66.4181 29.6882 66.3141 29.7553 66.2259 29.8407C66.1369 29.926 66.0664 30.0279 66.0179 30.1404C65.9694 30.253 65.9429 30.3741 65.9412 30.4968C65.942 30.681 65.9826 30.863 66.0602 31.0304L69.0303 38.0619C69.1167 38.3576 69.2974 38.6173 69.5442 38.8021C69.7911 38.9869 70.0908 39.0868 70.3994 39.0868C70.7079 39.0868 71.0086 38.9869 71.2554 38.8021C71.5023 38.6173 71.6821 38.3576 71.7685 38.0619L74.7888 30.9909C74.8567 30.8342 74.8973 30.6671 74.9079 30.4968C74.9123 30.374 74.8911 30.2518 74.8453 30.1378C74.8003 30.0237 74.7315 29.9202 74.6443 29.8339C74.5561 29.7476 74.4521 29.6802 74.3375 29.6361C74.2229 29.5921 74.0994 29.5721 73.9769 29.5777Z" fill="white"/>
<path d="M79.4921 29.5085C78.3575 29.4861 77.2449 29.8178 76.3078 30.4573C76.1791 30.5345 76.0724 30.6438 75.9984 30.7747C75.9252 30.9055 75.8864 31.0532 75.8873 31.2034C75.8846 31.3018 75.9023 31.3996 75.9375 31.4912C75.9737 31.5828 76.0274 31.6664 76.0962 31.7368C76.165 31.8073 76.247 31.8633 76.3378 31.9015C76.4286 31.9398 76.5264 31.9594 76.6252 31.9594C76.8385 31.9464 77.043 31.8669 77.2097 31.7322C77.8294 31.2852 78.5735 31.0402 79.3387 31.0304C80.7449 31.0304 81.5471 31.742 81.5471 33.0069V33.2145C78.398 33.2145 75.1943 33.5999 75.1943 36.3325C75.1943 38.3089 76.8826 39.1836 78.5514 39.1836C79.1509 39.2104 79.7478 39.0849 80.2855 38.8188C80.8233 38.5525 81.2844 38.1544 81.6256 37.6617V38.1558C81.6088 38.2812 81.6185 38.4089 81.6564 38.5299C81.6934 38.651 81.7569 38.7625 81.8415 38.8566C81.9262 38.9507 82.0311 39.0252 82.1475 39.0749C82.2638 39.1245 82.3908 39.1481 82.5169 39.1441C82.6412 39.144 82.7637 39.1173 82.8765 39.0656C82.9894 39.014 83.089 38.9387 83.1701 38.8448C83.2512 38.751 83.3103 38.6409 83.3447 38.522C83.379 38.4031 83.387 38.2782 83.3685 38.1558V33.1008C83.3491 30.8328 81.9086 29.5085 79.4921 29.5085ZM81.131 34.6079H81.5268V35.0428C81.5541 35.3912 81.5065 35.7415 81.3875 36.0699C81.2676 36.3983 81.0781 36.6973 80.833 36.9465C80.587 37.1957 80.2908 37.3894 79.9638 37.5145C79.6367 37.6396 79.2867 37.6931 78.9376 37.6715C78.5065 37.6715 77.11 37.5727 77.11 36.2929C77.11 34.7562 79.4031 34.5832 81.131 34.5832V34.6079Z" fill="white"/>
<path d="M88.2893 31.2975C88.3995 31.3133 88.5114 31.3051 88.6172 31.2734C88.723 31.2416 88.8218 31.1872 88.9046 31.1139C88.9875 31.0404 89.0536 30.9499 89.0977 30.8485C89.1418 30.747 89.1638 30.6373 89.1612 30.5266C89.1656 30.4145 89.1453 30.3027 89.1021 30.199C89.0589 30.0955 88.9937 30.0025 88.9108 29.9267C88.8279 29.851 88.7292 29.7942 88.6216 29.7605C88.5141 29.7266 88.4012 29.7166 88.2893 29.7311H86.5816V28.0264C86.5984 27.8935 86.586 27.7586 86.5473 27.6306C86.5076 27.5026 86.4415 27.3846 86.3524 27.2841C86.2634 27.1836 86.1541 27.1032 86.0324 27.0481C85.9099 26.993 85.7767 26.9645 85.6427 26.9645C85.5087 26.9645 85.3765 26.993 85.254 27.0481C85.1314 27.1032 85.0221 27.1836 84.9339 27.2841C84.8449 27.3846 84.7788 27.5026 84.7391 27.6306C84.6994 27.7586 84.688 27.8935 84.7047 28.0264V36.1943C84.7047 38.0819 85.6357 39.08 87.4033 39.08C87.8114 39.0912 88.2179 39.0172 88.5961 38.8626C88.7477 38.8015 88.8773 38.698 88.9707 38.5647C89.0633 38.4314 89.1162 38.274 89.1215 38.1115C89.125 38.012 89.1074 37.9128 89.0713 37.8201C89.0342 37.7274 88.9796 37.6432 88.9082 37.5728C88.8376 37.5023 88.7539 37.4471 88.6604 37.4106C88.5679 37.3741 88.4682 37.357 88.3686 37.3605C88.2531 37.3649 88.1376 37.3848 88.0274 37.4197C87.8996 37.4546 87.7683 37.4729 87.636 37.4741C86.9175 37.4741 86.5816 37.0047 86.5816 35.9917V31.2975H88.2893Z" fill="white"/>
<path d="M94.5624 29.5084C91.6954 29.5084 89.6114 31.5343 89.6114 34.3361C89.6008 34.9837 89.7216 35.6269 89.9658 36.227C90.21 36.8271 90.5732 37.3721 91.0325 37.8296C91.9846 38.7292 93.2515 39.2206 94.5624 39.1983C95.213 39.2197 95.861 39.1093 96.4675 38.8739C97.0741 38.6385 97.6268 38.2828 98.0923 37.8285C98.5569 37.374 98.9245 36.8303 99.174 36.23C99.4226 35.6299 99.5469 34.9856 99.539 34.3361C99.539 31.5096 97.4443 29.5084 94.5624 29.5084ZM94.5624 37.5924C92.5823 37.5924 91.5667 35.9568 91.5667 34.3361C91.5667 32.1075 93.1219 31.0946 94.5624 31.0946C96.0038 31.0946 97.5633 32.1075 97.5633 34.3361C97.5633 36.5646 96.0232 37.5677 94.5624 37.5677V37.5924Z" fill="white"/>
<path d="M43.5744 28.6192C42.0492 26.8354 37.1132 30.2943 37.1379 34.7415C37.1379 34.7965 37.1158 34.8493 37.0771 34.8882C37.0374 34.9272 36.9845 34.949 36.9298 34.949C36.8937 34.9496 36.8584 34.9409 36.8276 34.9235C36.7958 34.9062 36.7694 34.8809 36.7517 34.8502C36.4643 34.2304 36.3145 33.5564 36.3109 32.8737C36.3101 32.3575 36.3956 31.8448 36.5631 31.3567C36.5754 31.3144 36.5728 31.2693 36.556 31.2286C36.5402 31.1879 36.5102 31.1538 36.4723 31.1316C36.4344 31.1096 36.3903 31.1008 36.3462 31.1066C36.303 31.1124 36.2625 31.1326 36.2316 31.164C35.4179 32.0443 34.9674 33.1982 34.9692 34.3956C34.9586 35.0252 35.0758 35.6503 35.3121 36.234C35.5493 36.8176 35.901 37.3478 36.3471 37.7931C36.7932 38.2383 37.3248 38.5896 37.9093 38.8259C38.4947 39.0623 39.1206 39.1788 39.7518 39.1689C46.5154 39.0107 44.9356 30.2103 43.5744 28.6192Z" fill="#80B341"/>
</svg>
