<svg width="5" height="8" viewBox="0 0 5 8" fill="none" xmlns="http://www.w3.org/2000/svg">
<path d="M0.190663 7.82429C0.431544 8.06664 0.882368 8.05035 1.12767 7.82429C1.28015 7.68377 1.43264 7.54325 1.58512 7.40272C2.24589 6.79379 2.90665 6.18486 3.56742 5.57593C3.98067 5.19509 4.39614 4.81221 4.8094 4.43138C5.06354 4.19717 5.06354 3.80208 4.8094 3.56787C4.65691 3.42735 4.50443 3.28683 4.35194 3.1463C3.69118 2.53737 3.03041 1.92844 2.36964 1.31951C1.95639 0.938669 1.54092 0.555795 1.12767 0.174957C0.866899 -0.0673937 0.455854 -0.0490647 0.190663 0.174957C-0.0723172 0.396943 -0.0546379 0.812402 0.190663 1.03846C0.343148 1.17898 0.495632 1.31951 0.648117 1.46003C1.30888 2.06896 1.96965 2.6779 2.63041 3.28683C3.04367 3.66767 3.45913 4.05054 3.87239 4.43138C3.87239 4.14422 3.87239 3.85503 3.87239 3.56787C3.7199 3.7084 3.56742 3.84892 3.41494 3.98944C2.75417 4.59838 2.0934 5.20731 1.43264 5.81624C1.01938 6.19708 0.603918 6.57995 0.190663 6.96079C-0.0701073 7.2011 -0.052428 7.57991 0.190663 7.82429Z" fill="white"/>
</svg>
